# Exported from Wings 3D 1.2
mtllib quick.mtl
o cube3
#24 vertices, 18 faces
v -0.68800000 -0.22107733 0.18438400
v -0.68800000 0.14769067 0.18438400
v 0.68800000 0.14769067 0.18438400
v 0.68800000 -0.22107733 0.18438400
v -0.68800000 -0.22107733 -0.18438400
v -0.68800000 0.14769067 -0.18438400
v 0.68800000 0.14769067 -0.18438400
v 0.68800000 -0.22107733 -0.18438400
v -0.69258667 -0.68800000 0.60180736
v -0.69258667 0.68800000 0.60180736
v -0.99530667 0.68800000 0.60180736
v -0.99530667 -0.68800000 0.60180736
v -0.69258667 -0.68800000 -0.60180736
v -0.69258667 0.68800000 -0.60180736
v -0.99530667 0.68800000 -0.60180736
v -0.99530667 -0.68800000 -0.60180736
v 0.69258667 -0.68800000 0.60180736
v 0.69258667 0.68800000 0.60180736
v 0.99530667 0.68800000 0.60180736
v 0.99530667 -0.68800000 0.60180736
v 0.69258667 -0.68800000 -0.60180736
v 0.69258667 0.68800000 -0.60180736
v 0.99530667 0.68800000 -0.60180736
v 0.99530667 -0.68800000 -0.60180736
vn -0.57735027 -0.57735027 0.57735027
vn -0.57735027 0.57735027 0.57735027
vn 0.57735027 0.57735027 0.57735027
vn 0.57735027 -0.57735027 0.57735027
vn -0.57735027 -0.57735027 -0.57735027
vn -0.57735027 0.57735027 -0.57735027
vn 0.57735027 0.57735027 -0.57735027
vn 0.57735027 -0.57735027 -0.57735027
vn 0.57735027 -0.57735027 0.57735027
vn 0.57735027 0.57735027 0.57735027
vn -0.57735027 0.57735027 0.57735027
vn -0.57735027 -0.57735027 0.57735027
vn 0.57735027 -0.57735027 -0.57735027
vn 0.57735027 0.57735027 -0.57735027
vn -0.57735027 0.57735027 -0.57735027
vn -0.57735027 -0.57735027 -0.57735027
vn -0.57735027 -0.57735027 0.57735027
vn -0.57735027 0.57735027 0.57735027
vn 0.57735027 0.57735027 0.57735027
vn 0.57735027 -0.57735027 0.57735027
vn -0.57735027 -0.57735027 -0.57735027
vn -0.57735027 0.57735027 -0.57735027
vn 0.57735027 0.57735027 -0.57735027
vn 0.57735027 -0.57735027 -0.57735027
g cube3_default
usemtl default
s 1
f 1//1 4//4 3//3 2//2
f 1//1 5//5 8//8 4//4
f 2//2 6//6 5//5 1//1
f 3//3 7//7 6//6 2//2
f 4//4 8//8 7//7 3//3
f 6//6 7//7 8//8 5//5
f 9//9 13//13 14//14 10//10
f 10//10 11//11 12//12 9//9
f 10//10 14//14 15//15 11//11
f 11//11 15//15 16//16 12//12
f 12//12 16//16 13//13 9//9
f 13//13 16//16 15//15 14//14
f 17//17 20//20 19//19 18//18
f 17//17 21//21 24//24 20//20
f 18//18 22//22 21//21 17//17
f 19//19 23//23 22//22 18//18
f 20//20 24//24 23//23 19//19
f 22//22 23//23 24//24 21//21
